<svg width="60" height="60" viewBox="0 0 60 60" fill="none" xmlns="http://www.w3.org/2000/svg">
<path fill-rule="evenodd" clip-rule="evenodd" d="M11.7051 29.6233C11.7051 39.532 19.9084 47.541 29.6228 47.541C39.5531 47.541 47.5405 39.532 47.5405 29.6233C47.5405 19.7362 39.5531 11.7056 29.6228 11.7056C19.9084 11.7056 11.7051 19.7362 11.7051 29.6233ZM15.375 29.6235C15.375 21.7224 21.8513 15.2893 29.6229 15.2893C37.6103 15.2893 44.0866 21.7224 44.0866 29.6235C44.0866 37.5461 37.6103 43.9576 29.6229 43.9576C21.8513 43.9576 15.375 37.5461 15.375 29.6235ZM24.4415 31.4152C24.4415 30.4437 23.578 29.6234 22.4986 29.6234C21.6351 29.6234 20.7716 30.4437 20.7716 31.4152C20.7716 36.3803 24.6574 40.374 29.6225 40.374C34.5877 40.374 38.6893 36.3803 38.6893 31.4152C38.6893 30.4437 37.8258 29.6234 36.9623 29.6234C35.883 29.6234 35.0195 30.4437 35.0195 31.4152C35.0195 34.3942 32.6448 36.7905 29.6225 36.7905C26.8162 36.7905 24.4415 34.3942 24.4415 31.4152ZM22.4986 26.0396C23.578 26.0396 24.4415 25.2409 24.4415 24.2479C24.4415 25.2409 25.0891 26.0396 26.1685 26.0396C27.032 26.0396 27.8955 25.2409 27.8955 24.2479C27.8955 22.2834 26.3844 20.6643 24.4415 20.6643C22.2828 20.6643 20.7716 22.2834 20.7716 24.2479C20.7716 25.2409 21.6351 26.0396 22.4986 26.0396ZM33.2936 22.4563C32.2142 22.4563 31.5666 23.2767 31.5666 24.2481C31.5666 25.2411 32.2142 26.0399 33.2936 26.0399H36.9635C37.827 26.0399 38.6905 25.2411 38.6905 24.2481C38.6905 23.2767 37.827 22.4563 36.9635 22.4563H33.2936Z" fill="white"/>
</svg>
