<svg width="154" height="50" viewBox="0 0 154 50" fill="none" xmlns="http://www.w3.org/2000/svg">
<path d="M20.9504 15.3521C20.9504 15.3521 24.9705 47.6002 1.10439 47.3389C37.0308 61.3691 33.2653 15.3521 33.2653 15.3521C33.2653 15.3521 42.1632 17.1478 44.0459 3.97522H17.7008C17.7008 3.97522 -6.84874 4.22983 1.87491 34.4276C1.87491 34.4276 2.98714 15.3521 20.9504 15.3521Z" fill="white"/>
<path d="M47.4899 34.9096C47.6909 34.9766 47.8986 35.0168 48.1063 35.0369C48.3073 35.057 48.515 35.0637 48.716 35.0637C49.2253 35.0637 49.7211 34.9967 50.1901 34.856C50.6591 34.7153 51.108 34.5143 51.5234 34.253C51.9388 33.9917 52.3074 33.6701 52.6357 33.2949C52.964 32.9197 53.2253 32.4976 53.433 32.0419L57.2588 35.8878C56.7764 36.578 56.2136 37.1944 55.5837 37.7438C54.9539 38.2932 54.2705 38.7555 53.5335 39.1441C52.7965 39.5261 52.0259 39.8142 51.2152 40.0152C50.4045 40.2095 49.5737 40.31 48.716 40.31C47.2755 40.31 45.9154 40.042 44.649 39.506C43.376 38.9699 42.2705 38.2262 41.319 37.2681C40.3676 36.31 39.6172 35.1709 39.0678 33.851C38.5184 32.5311 38.2437 31.0771 38.2437 29.4959C38.2437 27.9146 38.5184 26.3937 39.0678 25.0536C39.6172 23.7136 40.3676 22.5679 41.319 21.6231C42.2705 20.6784 43.3827 19.9481 44.649 19.4188C45.9154 18.8895 47.2755 18.6349 48.716 18.6349C49.5737 18.6349 50.4045 18.7354 51.2219 18.9431C52.0393 19.1441 52.8166 19.4389 53.5469 19.8208C54.2772 20.2027 54.9673 20.6717 55.6038 21.2278C56.2404 21.7839 56.8032 22.4071 57.2856 23.0972L47.4832 34.9096H47.4899ZM50.17 24.129C49.9288 24.0419 49.6876 23.9816 49.4531 23.9548C49.2186 23.928 48.9707 23.9146 48.716 23.9146C47.9991 23.9146 47.3291 24.0486 46.6993 24.3099C46.0695 24.5712 45.5201 24.9464 45.051 25.4289C44.582 25.9113 44.2202 26.5009 43.9522 27.1843C43.6842 27.8677 43.5502 28.6382 43.5502 29.4892C43.5502 29.6835 43.5569 29.8979 43.577 30.1391C43.5971 30.3803 43.6306 30.6282 43.6708 30.8761C43.7177 31.124 43.7713 31.3652 43.8316 31.593C43.8919 31.8208 43.979 32.0285 44.0795 32.2027L50.17 24.1223V24.129Z" fill="white"/>
<path d="M85.9956 39.9285H80.7896V26.91C80.7896 26.5549 80.7226 26.2132 80.5886 25.8983C80.4546 25.5767 80.267 25.302 80.0257 25.0541C79.7845 24.8129 79.5031 24.6253 79.1815 24.4913C78.8599 24.3573 78.5249 24.2903 78.1698 24.2903C77.8147 24.2903 77.4797 24.3573 77.1648 24.4913C76.8498 24.6253 76.5751 24.8129 76.3406 25.0541C76.1061 25.2953 75.9185 25.5767 75.7845 25.8983C75.6505 26.2199 75.5835 26.5549 75.5835 26.91V39.9285H70.3574V26.91C70.3574 26.5549 70.2904 26.2132 70.1564 25.8983C70.0224 25.5767 69.8348 25.302 69.5935 25.0541C69.3523 24.8129 69.0709 24.6253 68.7493 24.4913C68.4277 24.3573 68.0927 24.2903 67.7376 24.2903C67.3825 24.2903 67.0475 24.3573 66.7326 24.4913C66.4177 24.6253 66.1429 24.8129 65.9084 25.0541C65.6739 25.2953 65.4863 25.5767 65.3523 25.8983C65.2183 26.2199 65.1513 26.5549 65.1513 26.91V39.9285H59.9252V19.4192H61.1915L62.6119 20.9871C63.3423 20.3774 64.1396 19.9016 65.0173 19.5599C65.895 19.2182 66.7996 19.0507 67.7443 19.0507C68.689 19.0507 69.6337 19.2316 70.5517 19.5867C71.4696 19.9418 72.2669 20.565 72.957 21.4427C73.2786 21.0072 73.6405 20.6387 74.0492 20.3305C74.4579 20.0222 74.8867 19.7743 75.3423 19.5867C75.7979 19.3924 76.2669 19.2584 76.7494 19.178C77.2318 19.0976 77.7142 19.0507 78.1832 19.0507C79.2686 19.0507 80.2871 19.2517 81.2385 19.6604C82.1899 20.0691 83.0207 20.6253 83.7242 21.3355C84.4345 22.0457 84.9906 22.8765 85.3993 23.8347C85.808 24.7928 86.0157 25.8112 86.0157 26.8966V39.9151L85.9956 39.9285Z" fill="white"/>
<path d="M95.0682 47.7404H89.8019V19.4254H91.0682L93.1587 21.8978C93.6344 21.4489 94.1503 21.0268 94.7064 20.6315C95.2692 20.2361 95.8522 19.8944 96.4619 19.6063C97.0649 19.3182 97.6947 19.0904 98.3446 18.9296C98.9945 18.7621 99.6512 18.6817 100.314 18.6817C101.755 18.6817 103.115 18.943 104.381 19.4589C105.655 19.9748 106.76 20.7052 107.711 21.6499C108.663 22.5946 109.413 23.7336 109.963 25.067C110.512 26.4003 110.787 27.8811 110.787 29.5025C110.787 31.124 110.512 32.7052 109.963 34.0519C109.413 35.3987 108.663 36.5377 107.711 37.4824C106.76 38.4272 105.648 39.1374 104.381 39.6332C103.108 40.129 101.755 40.3769 100.314 40.3769C99.8522 40.3769 99.3965 40.3233 98.9476 40.2228C98.492 40.1223 98.0498 39.9816 97.6076 39.8141C97.1654 39.6399 96.7299 39.4456 96.3078 39.2312C95.879 39.0168 95.4702 38.789 95.0749 38.5612V47.7538L95.0682 47.7404ZM105.541 29.4958C105.541 28.6248 105.4 27.8476 105.132 27.1574C104.857 26.4673 104.482 25.8844 104.013 25.402C103.537 24.9263 102.988 24.5578 102.345 24.3032C101.708 24.0486 101.031 23.9213 100.314 23.9213C99.5976 23.9213 98.9275 24.0486 98.2977 24.3032C97.6679 24.5578 97.1118 24.9263 96.6428 25.402C96.1671 25.8777 95.7986 26.4673 95.5238 27.1574C95.2491 27.8476 95.1151 28.6248 95.1151 29.4958C95.1151 30.3668 95.2491 31.0838 95.5238 31.7739C95.7986 32.464 96.1738 33.0536 96.6428 33.536C97.1118 34.0184 97.6679 34.4003 98.2977 34.6684C98.9275 34.9364 99.6043 35.0704 100.314 35.0704C101.025 35.0704 101.708 34.9364 102.345 34.6684C102.981 34.4003 103.537 34.0251 104.013 33.536C104.482 33.0536 104.857 32.464 105.132 31.7739C105.407 31.0838 105.541 30.3266 105.541 29.4958Z" fill="white"/>
<path d="M128.75 37.5365C128.328 37.9184 127.879 38.2802 127.403 38.6219C126.927 38.9569 126.425 39.2517 125.902 39.4996C125.38 39.7476 124.837 39.9486 124.281 40.096C123.725 40.2434 123.162 40.3171 122.586 40.3171C121.319 40.3171 120.133 40.096 119.021 39.6471C117.909 39.1981 116.937 38.5683 116.1 37.7442C115.262 36.9201 114.606 35.9217 114.13 34.7358C113.654 33.5566 113.413 32.2299 113.413 30.7626V19.4259H118.619V30.7626C118.619 31.4527 118.726 32.0691 118.934 32.6118C119.142 33.1546 119.43 33.6102 119.785 33.9787C120.14 34.3472 120.562 34.6286 121.038 34.8229C121.514 35.0172 122.03 35.111 122.579 35.111C123.128 35.111 123.624 34.9837 124.1 34.7358C124.576 34.4879 124.998 34.1596 125.353 33.7509C125.708 33.3422 125.989 32.8799 126.197 32.3639C126.405 31.848 126.505 31.312 126.505 30.7626V19.4259H131.731V39.9352H130.465L128.743 37.5432L128.75 37.5365Z" fill="white"/>
<path d="M146.981 39.9285H135.035V34.7224H146.981C147.336 34.7224 147.644 34.5951 147.899 34.3405C148.154 34.0859 148.281 33.7777 148.281 33.4226C148.281 33.0675 148.154 32.8062 147.899 32.6923C147.644 32.5784 147.336 32.5181 146.981 32.5181H141.54C140.636 32.5181 139.785 32.3438 138.994 32.0021C138.204 31.6604 137.514 31.1914 136.924 30.5951C136.334 29.9988 135.872 29.3087 135.537 28.518C135.202 27.7274 135.028 26.8765 135.028 25.972C135.028 25.0674 135.195 24.2165 135.537 23.4259C135.872 22.6353 136.341 21.9452 136.924 21.3555C137.507 20.7659 138.197 20.3036 138.994 19.9686C139.785 19.6336 140.636 19.4594 141.54 19.4594H152.127V24.6654H141.54C141.185 24.6654 140.877 24.7927 140.623 25.0473C140.368 25.3019 140.241 25.6102 140.241 25.9653C140.241 26.3204 140.368 26.6487 140.623 26.91C140.877 27.1713 141.185 27.3053 141.54 27.3053H146.981C147.872 27.3053 148.716 27.4527 149.507 27.7542C150.298 28.0557 150.988 28.4711 151.577 29.0072C152.167 29.5432 152.629 30.1864 152.978 30.9435C153.319 31.6939 153.494 32.5181 153.494 33.4159C153.494 34.3137 153.319 35.1646 152.978 35.9552C152.636 36.7392 152.167 37.4293 151.577 38.0256C150.988 38.6219 150.298 39.0842 149.507 39.4259C148.716 39.7677 147.872 39.9352 146.981 39.9352V39.9285Z" fill="white"/>
<path d="M85.1828 13.6816H83.2727L82.2649 12.1699C82.2102 12.1777 82.1574 12.1816 82.1067 12.1816C82.0598 12.1816 82.0129 12.1816 81.966 12.1816C81.5676 12.1816 81.1828 12.1289 80.8117 12.0234C80.4445 11.9219 80.0988 11.7773 79.7746 11.5898C79.4543 11.3984 79.1613 11.1699 78.8957 10.9043C78.6301 10.6387 78.4016 10.3457 78.2102 10.0254C78.0227 9.70117 77.8762 9.35547 77.7707 8.98828C77.6692 8.61719 77.6184 8.23242 77.6184 7.83398C77.6184 7.43555 77.6692 7.05078 77.7707 6.67969C77.8762 6.30859 78.0227 5.96289 78.2102 5.64258C78.4016 5.32227 78.6301 5.0293 78.8957 4.76367C79.1613 4.49805 79.4543 4.27148 79.7746 4.08398C80.0988 3.89648 80.4445 3.75195 80.8117 3.65039C81.1828 3.54492 81.5676 3.49219 81.966 3.49219C82.3645 3.49219 82.7492 3.54492 83.1203 3.65039C83.4914 3.75195 83.8371 3.89648 84.1574 4.08398C84.4778 4.27148 84.7707 4.49805 85.0363 4.76367C85.302 5.0293 85.5285 5.32227 85.716 5.64258C85.9035 5.96289 86.0481 6.30859 86.1496 6.67969C86.2551 7.05078 86.3078 7.43555 86.3078 7.83398C86.3078 8.24805 86.2492 8.65039 86.132 9.04102C86.0188 9.43164 85.8567 9.79688 85.6457 10.1367C85.4348 10.4727 85.1789 10.7773 84.8781 11.0508C84.5813 11.3242 84.2492 11.5527 83.882 11.7363L85.1828 13.6816ZM84.6379 7.83398C84.6379 7.4668 84.5676 7.12109 84.427 6.79688C84.2863 6.46875 84.0949 6.18555 83.8528 5.94727C83.6145 5.70508 83.3313 5.51367 83.0031 5.37305C82.6789 5.23242 82.3332 5.16211 81.966 5.16211C81.5949 5.16211 81.2473 5.23242 80.9231 5.37305C80.5988 5.51367 80.3156 5.70508 80.0735 5.94727C79.8313 6.18555 79.6399 6.46875 79.4992 6.79688C79.3586 7.12109 79.2883 7.4668 79.2883 7.83398C79.2883 8.20117 79.3586 8.54688 79.4992 8.87109C79.6399 9.19141 79.8313 9.47266 80.0735 9.71484C80.3156 9.95703 80.5988 10.1484 80.9231 10.2891C81.2473 10.4297 81.5949 10.5 81.966 10.5C82.3332 10.5 82.6789 10.4297 83.0031 10.2891C83.3313 10.1484 83.6145 9.95703 83.8528 9.71484C84.0949 9.47266 84.2863 9.19141 84.427 8.87109C84.5676 8.54688 84.6379 8.20117 84.6379 7.83398ZM91.8567 11.2676C91.7278 11.3848 91.5891 11.4961 91.4406 11.6016C91.2961 11.7031 91.1438 11.793 90.9836 11.8711C90.8235 11.9453 90.6574 12.0039 90.4856 12.0469C90.3176 12.0938 90.1457 12.1172 89.9699 12.1172C89.5832 12.1172 89.2199 12.0488 88.8801 11.9121C88.5403 11.7754 88.2414 11.582 87.9836 11.332C87.7297 11.0781 87.5285 10.7715 87.3801 10.4121C87.2356 10.0488 87.1633 9.64258 87.1633 9.19336V5.72461H88.757V9.19336C88.757 9.4043 88.7883 9.59375 88.8508 9.76172C88.9172 9.92578 89.0051 10.0645 89.1145 10.1777C89.2238 10.291 89.3508 10.377 89.4953 10.4355C89.6438 10.4941 89.802 10.5234 89.9699 10.5234C90.134 10.5234 90.2883 10.4863 90.4328 10.4121C90.5813 10.334 90.7102 10.2324 90.8195 10.1074C90.9289 9.98242 91.0149 9.8418 91.0774 9.68555C91.1399 9.52539 91.1711 9.36133 91.1711 9.19336V5.72461H92.7707V12H92.384L91.8567 11.2676ZM96.4914 10.4648C96.5539 10.4844 96.6164 10.498 96.6789 10.5059C96.7414 10.5098 96.8039 10.5117 96.8664 10.5117C97.0227 10.5117 97.1731 10.4902 97.3176 10.4473C97.4621 10.4043 97.5969 10.3438 97.7219 10.2656C97.8508 10.1836 97.9641 10.0859 98.0617 9.97266C98.1633 9.85547 98.2453 9.72656 98.3078 9.58594L99.4797 10.7637C99.3313 10.9746 99.1594 11.1641 98.9641 11.332C98.7727 11.5 98.5637 11.6426 98.3371 11.7598C98.1145 11.877 97.8781 11.9648 97.6281 12.0234C97.382 12.0859 97.1281 12.1172 96.8664 12.1172C96.425 12.1172 96.009 12.0352 95.6184 11.8711C95.2317 11.707 94.8918 11.4785 94.5988 11.1855C94.3098 10.8926 94.0813 10.5449 93.9133 10.1426C93.7453 9.73633 93.6613 9.29102 93.6613 8.80664C93.6613 8.31055 93.7453 7.85742 93.9133 7.44727C94.0813 7.03711 94.3098 6.6875 94.5988 6.39844C94.8918 6.10938 95.2317 5.88477 95.6184 5.72461C96.009 5.56445 96.425 5.48438 96.8664 5.48438C97.1281 5.48438 97.384 5.51562 97.634 5.57812C97.884 5.64062 98.1203 5.73047 98.343 5.84766C98.5695 5.96484 98.7805 6.10938 98.9758 6.28125C99.1711 6.44922 99.343 6.63867 99.4914 6.84961L96.4914 10.4648ZM97.3117 7.16602C97.2375 7.13867 97.1633 7.12109 97.0891 7.11328C97.0188 7.10547 96.9445 7.10156 96.8664 7.10156C96.6477 7.10156 96.4406 7.14258 96.2453 7.22461C96.0539 7.30273 95.886 7.41602 95.7414 7.56445C95.6008 7.71289 95.4895 7.89258 95.4074 8.10352C95.3254 8.31055 95.2844 8.54492 95.2844 8.80664C95.2844 8.86523 95.2863 8.93164 95.2903 9.00586C95.2981 9.08008 95.3078 9.15625 95.3195 9.23438C95.3352 9.30859 95.3528 9.38086 95.3723 9.45117C95.3918 9.52148 95.4172 9.58398 95.4485 9.63867L97.3117 7.16602ZM105.198 12H99.966L102.609 7.33008H99.966V5.73633H105.198L102.556 10.4062H105.198V12Z" fill="white" fill-opacity="0.7"/>
</svg>
